<?xml version="1.0" standalone="no"?>
<svg viewBox="0 0 135 137" fill="none" xmlns="http://www.w3.org/2000/svg">
<path d="M91.0775 35.4663C104.278 45.4663 122.578 47.8663 129.978 57.0663C137.378 66.2663 133.778 82.1663 126.978 95.2663C120.278 108.266 110.178 118.466 98.8775 123.966C87.4775 129.566 74.6775 130.466 60.0775 133.066C45.4775 135.666 28.9775 139.966 21.6775 133.066C14.4775 126.166 16.5775 108.066 13.1775 92.9663C9.87752 77.7663 0.97752 65.5663 0.0775198 51.9663C-0.82248 38.4663 6.17752 23.6663 17.7775 13.1663C29.4775 2.66631 45.6775 -3.53369 57.8775 2.16631C69.9775 7.86631 77.9775 25.4663 91.0775 35.4663Z" fill="#fff"/>
</svg>
