<?xml version="1.0" encoding="UTF-8" standalone="no"?>
<svg
   xmlns:dc="http://purl.org/dc/elements/1.1/"
   xmlns:cc="http://creativecommons.org/ns#"
   xmlns:rdf="http://www.w3.org/1999/02/22-rdf-syntax-ns#"
   xmlns:svg="http://www.w3.org/2000/svg"
   xmlns="http://www.w3.org/2000/svg"
   id="svg3775"
   version="1.1"
   height="51"
   width="51">
  <metadata
     id="metadata3781">
    <rdf:RDF>
      <cc:Work
         rdf:about="">
        <dc:format>image/svg+xml</dc:format>
        <dc:type
           rdf:resource="http://purl.org/dc/dcmitype/StillImage" />
        <dc:title></dc:title>
      </cc:Work>
    </rdf:RDF>
  </metadata>
  <defs
     id="defs3779" />
  <g
     transform="translate(-34.6,-37.4)"
     style="fill:none"
     id="g3773">
    <path
       style="fill:#000000"
       id="path3767"
       d="m 34.6,37.4 h 51 v 51 h -51 z" />
    <path
       style="fill:#ffffff"
       id="path3769"
       d="M 39,78.8 H 58.1 V 82 H 39 Z m -0.2,-28 1.5,-1.4 c 0.4,0.5 0.8,0.8 1.3,0.8 0.6,0 0.9,-0.4 0.9,-1.2 v -5.3 h 2.3 V 49 c 0,1 -0.3,1.8 -0.8,2.3 -0.5,0.5 -1.3,0.8 -2.3,0.8 -1.5,0.1 -2.3,-0.5 -2.9,-1.3 z m 6.5,-7 H 52 v 1.9 H 47.6 V 47 h 4 v 1.8 h -4 v 1.3 h 4.5 v 2 h -6.7 z m 9.7,2 h -2.5 v -2 h 7.3 v 2 h -2.5 v 6.3 H 55 Z M 39,54 h 4.3 c 1,0 1.8,0.3 2.3,0.7 0.3,0.3 0.5,0.8 0.5,1.4 0,1 -0.5,1.5 -1.3,1.9 1,0.3 1.6,0.9 1.6,2 0,1.4 -1.2,2.3 -3.1,2.3 H 39 Z m 4.8,2.6 c 0,-0.5 -0.4,-0.7 -1,-0.7 h -1.5 v 1.5 h 1.4 c 0.7,-0.1 1.1,-0.3 1.1,-0.8 z M 43,59 h -1.8 v 1.5 H 43 c 0.7,0 1.1,-0.3 1.1,-0.8 C 44.1,59.2 43.7,59 43,59 Z m 3.8,-5 h 3.9 c 1.3,0 2.1,0.3 2.7,0.9 0.5,0.5 0.7,1.1 0.7,1.9 0,1.3 -0.7,2.1 -1.7,2.6 l 2,2.9 h -2.6 l -1.7,-2.5 h -1 v 2.5 h -2.3 z m 3.8,4 c 0.8,0 1.2,-0.4 1.2,-1 0,-0.7 -0.5,-1 -1.2,-1 h -1.5 v 2 z" />
    <path
       style="fill:#ffffff"
       id="path3771"
       d="M 56.8,54 H 59 l 3.5,8.4 H 60 l -0.6,-1.5 h -3.2 l -0.6,1.5 h -2.4 z m 2,5 L 57.9,56.7 57,59 Z m 4,-5 h 2.3 v 8.3 h -2.3 z m 2.9,0 h 2.1 l 3.4,4.4 V 54 h 2.3 v 8.3 h -2 L 68,57.8 v 4.6 h -2.3 z m 8,7.1 1.3,-1.5 c 0.8,0.7 1.7,1 2.7,1 0.6,0 1,-0.2 1,-0.6 0,-0.4 -0.3,-0.5 -1.4,-0.8 -1.8,-0.4 -3.1,-0.9 -3.1,-2.6 0,-1.5 1.2,-2.7 3.2,-2.7 1.4,0 2.5,0.4 3.4,1.1 l -1.2,1.6 c -0.8,-0.5 -1.6,-0.8 -2.3,-0.8 -0.6,0 -0.8,0.2 -0.8,0.5 0,0.4 0.3,0.5 1.4,0.8 1.9,0.4 3.1,1 3.1,2.6 0,1.7 -1.3,2.7 -3.4,2.7 -1.5,0.1 -2.9,-0.4 -3.9,-1.3 z" />
  </g>
</svg>
